<?xml version="1.0" encoding="utf-8"?>
<!-- Generator: Adobe Illustrator 21.0.0, SVG Export Plug-In . SVG Version: 6.00 Build 0)  -->
<svg version="1.1" id="Layer_1" xmlns="http://www.w3.org/2000/svg" xmlns:xlink="http://www.w3.org/1999/xlink" x="0px" y="0px"
	 viewBox="0 0 512 512" style="enable-background:new 0 0 512 512;" xml:space="preserve">
<style type="text/css">
	.st0{fill:url(#SVGID_1_);}
	.st1{fill:url(#SVGID_2_);}
	.st2{fill:url(#SVGID_3_);}
	.st3{fill:url(#SVGID_4_);}
	.st4{fill:url(#SVGID_5_);}
	.st5{fill:url(#SVGID_6_);}
	.st6{fill:url(#SVGID_7_);}
	.st7{fill:url(#SVGID_8_);}
	.st8{fill:url(#SVGID_9_);}
	.st9{fill:url(#SVGID_10_);}
	.st10{fill:url(#SVGID_11_);}
	.st11{fill:url(#SVGID_12_);}
	.st12{fill:url(#SVGID_13_);}
	.st13{fill:url(#SVGID_14_);}
	.st14{fill:url(#SVGID_15_);}
	.st15{fill:url(#SVGID_16_);}
	.st16{fill:url(#SVGID_17_);}
	.st17{fill:url(#SVGID_18_);}
	.st18{fill:url(#SVGID_19_);}
	.st19{fill:url(#SVGID_20_);}
	.st20{fill:url(#SVGID_21_);}
	.st21{fill:url(#SVGID_22_);}
	.st22{fill:url(#SVGID_23_);}
	.st23{fill:url(#SVGID_24_);}
	.st24{fill:url(#SVGID_25_);}
	.st25{fill:url(#SVGID_26_);}
	.st26{fill:url(#SVGID_27_);}
	.st27{fill:url(#SVGID_28_);}
	.st28{fill:url(#SVGID_29_);}
	.st29{fill:url(#SVGID_30_);}
	.st30{fill:url(#SVGID_31_);}
	.st31{fill:url(#SVGID_32_);}
	.st32{fill:url(#SVGID_33_);}
	.st33{fill:url(#SVGID_34_);}
	.st34{fill:url(#SVGID_35_);}
	.st35{fill:url(#SVGID_36_);}
	.st36{fill:url(#SVGID_37_);}
	.st37{fill:url(#SVGID_38_);}
	.st38{fill:url(#SVGID_39_);}
	.st39{fill:url(#SVGID_40_);}
	.st40{fill:url(#SVGID_41_);}
</style>
<g>
	<linearGradient id="SVGID_1_" gradientUnits="userSpaceOnUse" x1="45" y1="296.0316" x2="466.2993" y2="296.0316">
		<stop  offset="0" style="stop-color:#FFF7B8"/>
		<stop  offset="0" style="stop-color:#E6C684"/>
		<stop  offset="0.2279" style="stop-color:#C09947"/>
		<stop  offset="0.414" style="stop-color:#E9C577"/>
		<stop  offset="0.586" style="stop-color:#9E6F06"/>
		<stop  offset="1" style="stop-color:#E5C98D"/>
	</linearGradient>
	<path class="st0" d="M426.1,448.3H85.2c-22.2,0-40.2-18-40.2-40.2V157.2c0-7.4,6-13.4,13.4-13.4h110.7c4.9,0,9.3,2.6,11.7,6.9
		c16.2,29.1,55.5,56.3,71.6,66.7c2,1.3,4.5,1.3,6.5,0c16.1-10.4,55.4-37.5,71.6-66.7c2.4-4.2,6.8-6.9,11.7-6.9h110.7
		c7.4,0,13.4,6,13.4,13.4l0,0v250.8C466.3,430.2,448.3,448.2,426.1,448.3L426.1,448.3z M71.8,170.6v237.4c0,7.4,6,13.4,13.4,13.4
		h340.9c7.4,0,13.4-6,13.4-13.4V170.6h-89.7c-19.8,30.3-55.7,56.1-76.4,69.3c-10.8,6.9-24.7,6.9-35.5,0
		c-20.6-13.2-56.5-39-76.3-69.3H71.8z"/>
	<linearGradient id="SVGID_2_" gradientUnits="userSpaceOnUse" x1="45.3714" y1="250.22" x2="467" y2="250.22">
		<stop  offset="0" style="stop-color:#FFF7B8"/>
		<stop  offset="0" style="stop-color:#E6C684"/>
		<stop  offset="0.2279" style="stop-color:#C09947"/>
		<stop  offset="0.414" style="stop-color:#E9C577"/>
		<stop  offset="0.586" style="stop-color:#9E6F06"/>
		<stop  offset="1" style="stop-color:#E5C98D"/>
	</linearGradient>
	<path class="st1" d="M256.2,356.8c-10.7,0-20.9-4.2-28.4-11.8L49.5,166.7c-5.3-5.1-5.5-13.6-0.3-18.9c5.1-5.3,13.6-5.5,18.9-0.3
		c0.1,0.1,0.2,0.2,0.3,0.3L246.7,326c5.2,5.2,13.7,5.2,19,0L444,147.7c5.1-5.3,13.6-5.5,18.9-0.3c5.3,5.1,5.5,13.6,0.3,18.9
		c-0.1,0.1-0.2,0.2-0.3,0.3L284.6,345C277.1,352.6,266.9,356.8,256.2,356.8z"/>
	<linearGradient id="SVGID_3_" gradientUnits="userSpaceOnUse" x1="147.2053" y1="154.4219" x2="364.094" y2="154.4219">
		<stop  offset="0" style="stop-color:#FFF7B8"/>
		<stop  offset="0" style="stop-color:#E6C684"/>
		<stop  offset="0.2279" style="stop-color:#C09947"/>
		<stop  offset="0.414" style="stop-color:#E9C577"/>
		<stop  offset="0.586" style="stop-color:#9E6F06"/>
		<stop  offset="1" style="stop-color:#E5C98D"/>
	</linearGradient>
	<path class="st2" d="M255.6,245.1c-6.3,0-12.5-1.8-17.8-5.2c-22.1-14.2-62-43-80.5-76.2c-6.7-12.1-10.2-24-10.2-35.4
		c0-30,18.3-55.1,45.6-62.5c22.7-6.2,45.8,1.2,62.8,19c17-17.8,40.1-25.1,62.8-19c27.3,7.4,45.6,32.6,45.6,62.6
		c0,11.4-3.4,23.3-10.2,35.4c-18.5,33.2-58.4,62-80.5,76.1C268.1,243.3,261.9,245.1,255.6,245.1L255.6,245.1z M208.9,90.5
		c-3,0-6.1,0.4-9,1.2C184.2,96,174,110.4,174,128.4c0,6.7,2.3,14.2,6.8,22.3c16.2,29.1,55.5,56.3,71.6,66.7c2,1.3,4.5,1.3,6.5,0
		c16.1-10.4,55.4-37.5,71.6-66.7c4.5-8.1,6.8-15.6,6.8-22.3c0-18-10.2-32.4-25.9-36.7c-19.9-5.4-35.9,7.9-44.2,22.1
		c-3.7,6.4-12,8.5-18.3,4.8c-2-1.2-3.6-2.8-4.8-4.8C237.1,101.8,224.6,90.5,208.9,90.5z"/>
</g>
</svg>
